<svg xmlns="http://www.w3.org/2000/svg" viewBox="0 0 240 240" width="240" height="240" role="img" aria-label="VERITAS logo">
  <rect x="0" y="0" width="240" height="240" rx="48" fill="#2F5EA8"/>
  <g transform="translate(8.35,17.45) scale(1.75)">
    <path d="M 60.00 62.00 L 59.80 62.21 L 59.56 62.40 L 59.28 62.56 L 58.97 62.69 L 58.64 62.78 L 58.27 62.84 L 57.89 62.84 L 57.50 62.80 L 57.09 62.72 L 56.68 62.57 L 56.28 62.38 L 55.88 62.13 L 55.50 61.83 L 55.14 61.48 L 54.81 61.07 L 54.52 60.62 L 54.26 60.13 L 54.05 59.59 L 53.90 59.01 L 53.80 58.41 L 53.76 57.78 L 53.79 57.13 L 53.89 56.46 L 54.06 55.80 L 54.30 55.13 L 54.61 54.47 L 55.00 53.83 L 55.46 53.22 L 55.99 52.64 L 56.58 52.11 L 57.25 51.62 L 57.97 51.19 L 58.75 50.82 L 59.58 50.53 L 60.46 50.31 L 61.37 50.17 L 62.31 50.13 L 63.26 50.17 L 64.23 50.30 L 65.20 50.54 L 66.17 50.87 L 67.11 51.29 L 68.03 51.82 L 68.91 52.44 L 69.74 53.16 L 70.51 53.96 L 71.21 54.85 L 71.84 55.82 L 72.39 56.86 L 72.84 57.97 L 73.19 59.13 L 73.44 60.34 L 73.57 61.58 L 73.58 62.86 L 73.48 64.15 L 73.25 65.44 L 72.89 66.72 L 72.41 67.99 L 71.81 69.22 L 71.08 70.41 L 70.23 71.53 L 69.27 72.60 L 68.20 73.57 L 67.03 74.46 L 65.76 75.25 L 64.41 75.92 L 62.98 76.47 L 61.49 76.89 L 59.95 77.18 L 58.36 77.32 L 56.75 77.32 L 55.13 77.16 L 53.51 76.85 L 51.91 76.39 L 50.33 75.77 L 48.81 75.01 L 47.34 74.09 L 45.95 73.03 L 44.65 71.83 L 43.45 70.50 L 42.37 69.05 L 41.41 67.49 L 40.60 65.84 L 39.93 64.09 L 39.43 62.27 L 39.08 60.39 L 38.92 58.47 L 38.92 56.53 L 39.11 54.57 L 39.49 52.62 L 40.05 50.69 L 40.79 48.80 L 41.71 46.97 L 42.80 45.22 L 44.06 43.55 L 45.49 42.00 L 47.06 40.57 L 48.78 39.28 L 50.62 38.15 L 52.58 37.17 L 54.64 36.38 L 56.78 35.77 L 58.99 35.36 L 61.25 35.15 L 63.54 35.15 L 65.83 35.36 L 68.12 35.79 L 70.38 36.42 L 72.59 37.27 L 74.73 38.33 L 76.78 39.59 L 78.72 41.04 L 80.53 42.68 L 82.20 44.50 L 83.71 46.47 L 85.05 48.60 L 86.19 50.85 L 87.12 53.22 L 87.85 55.68 L 88.34 58.22 L 88.61 60.81 L 88.63 63.43 L 88.42 66.07 L 87.96 68.70 L 87.25 71.29 L 86.31 73.82 L 85.13 76.28 L 83.71 78.63 L 82.08 80.87 L 80.24 82.95 L 78.19 84.88 L 75.97 86.62 L 73.58 88.16 L 71.03 89.48 L 68.36 90.58 L 65.59 91.43 L 62.72 92.02 L 59.80 92.36 L 56.83 92.43 L 53.85 92.22 L 50.89 91.74 L 47.96 90.98 L 45.09 89.95 L 42.31 88.66 L 39.65 87.11 L 37.12 85.31 L 34.75 83.27 L 32.56 81.01 L 30.58 78.54 L 28.81 75.89 L 27.29 73.07 L 26.03 70.10 L 25.04 67.01 L 24.32 63.83 L 23.90 60.57 L 23.78 57.26 L 23.97 53.94 L 24.45 50.63 L 25.25 47.36 L 26.34 44.16 L 27.73 41.05 L 29.41 38.07 L 31.37 35.23 L 33.59 32.57 L 36.05 30.11 L 38.75 27.87 L 41.66 25.88 L 44.75 24.15 L 48.01 22.70 L 51.41 21.55 L 54.91 20.71 L 58.50 20.19 L 62.14 20.00 L 65.80 20.14 L 69.45 20.62 L 73.07 21.43 L 76.61 22.58 L 80.06 24.06 L 83.37 25.85 L 86.52 27.95 L 89.48 30.34 L 92.22 33.00 L 94.73 35.92 L 96.97 39.07 L 98.92 42.43 L 100.56 45.97 L 101.88 49.67 L 102.87 53.49 L 103.50 57.40 L 103.78 61.38 L 103.69 65.38 L 103.23 69.38 L 102.41 73.34 L 101.23 77.23 L 99.68 81.01 L 97.79 84.65 L 95.56 88.13 L 93.02 91.40 L 90.17 94.44 L 87.04 97.21" fill="none" stroke="#111111" stroke-width="6.5" stroke-linecap="round" stroke-linejoin="round"/>
  </g>
</svg>
